<mxfile host="www.draw.io" modified="2019-12-04T15:11:17.403Z" agent="Mozilla/5.0 (Windows NT 10.0; Win64; x64) AppleWebKit/537.36 (KHTML, like Gecko) Chrome/78.0.3904.70 Safari/537.36" etag="CY7QphJ4AMikVbACbXek" version="12.3.6" type="github" pages="1">
  <diagram name="Page-1" id="929967ad-93f9-6ef4-fab6-5d389245f69c">
    <mxGraphModel dx="1422" dy="772" grid="1" gridSize="10" guides="1" tooltips="1" connect="1" arrows="1" fold="1" page="1" pageScale="1.5" pageWidth="1169" pageHeight="826" background="none" math="0" shadow="0">
      <root>
        <mxCell id="0" style=";html=1;"/>
        <mxCell id="1" style=";html=1;" parent="0"/>
        <mxCell id="jWcVo7mUxsI8oJ3FVtmY-5" value="BtkLetterModelCategory" style="swimlane;fontStyle=1;align=center;verticalAlign=top;childLayout=stackLayout;horizontal=1;startSize=28;horizontalStack=0;resizeParent=1;resizeParentMax=0;resizeLast=0;collapsible=1;marginBottom=0;" parent="1" vertex="1">
          <mxGeometry x="250" y="500" width="334" height="140" as="geometry">
            <mxRectangle x="150" y="340" width="170" height="28" as="alternateBounds"/>
          </mxGeometry>
        </mxCell>
        <mxCell id="jWcVo7mUxsI8oJ3FVtmY-6" value="+ code: String&#xa;+ name: Localized:String&#xa;+ level: LetterModelLevelEnum&#xa;" style="text;strokeColor=none;fillColor=none;align=left;verticalAlign=top;spacingLeft=4;spacingRight=4;overflow=hidden;rotatable=0;points=[[0,0.5],[1,0.5]];portConstraint=eastwest;" parent="jWcVo7mUxsI8oJ3FVtmY-5" vertex="1">
          <mxGeometry y="28" width="334" height="52" as="geometry"/>
        </mxCell>
        <mxCell id="jWcVo7mUxsI8oJ3FVtmY-7" value="" style="line;strokeWidth=1;fillColor=none;align=left;verticalAlign=middle;spacingTop=-1;spacingLeft=3;spacingRight=3;rotatable=0;labelPosition=right;points=[];portConstraint=eastwest;" parent="jWcVo7mUxsI8oJ3FVtmY-5" vertex="1">
          <mxGeometry y="80" width="334" height="16" as="geometry"/>
        </mxCell>
        <mxCell id="jWcVo7mUxsI8oJ3FVtmY-17" value="+ getLetterModels(): List&lt;BtkLetterMedia&gt;&#xa;+ getSubCategories() : List&lt;BtkLetterModelCategory&gt;" style="text;strokeColor=none;fillColor=none;align=left;verticalAlign=top;spacingLeft=4;spacingRight=4;overflow=hidden;rotatable=0;points=[[0,0.5],[1,0.5]];portConstraint=eastwest;" parent="jWcVo7mUxsI8oJ3FVtmY-5" vertex="1">
          <mxGeometry y="96" width="334" height="44" as="geometry"/>
        </mxCell>
        <mxCell id="jWcVo7mUxsI8oJ3FVtmY-65" value="" style="endArrow=open;endFill=1;endSize=12;html=1;entryX=-0.003;entryY=0.827;entryDx=0;entryDy=0;entryPerimeter=0;exitX=0.5;exitY=0;exitDx=0;exitDy=0;" parent="jWcVo7mUxsI8oJ3FVtmY-5" source="jWcVo7mUxsI8oJ3FVtmY-5" target="jWcVo7mUxsI8oJ3FVtmY-6" edge="1">
          <mxGeometry width="160" relative="1" as="geometry">
            <mxPoint x="-80" y="-120" as="sourcePoint"/>
            <mxPoint x="80" y="-120" as="targetPoint"/>
            <Array as="points">
              <mxPoint x="167" y="-80"/>
              <mxPoint x="-90" y="-80"/>
              <mxPoint x="-90" y="71"/>
            </Array>
          </mxGeometry>
        </mxCell>
        <mxCell id="jWcVo7mUxsI8oJ3FVtmY-21" value="BtkLetterMedia" style="swimlane;fontStyle=1;align=center;verticalAlign=top;childLayout=stackLayout;horizontal=1;startSize=26;horizontalStack=0;resizeParent=1;resizeParentMax=0;resizeLast=0;collapsible=1;marginBottom=0;" parent="1" vertex="1">
          <mxGeometry x="796" y="378" width="160" height="92" as="geometry"/>
        </mxCell>
        <mxCell id="jWcVo7mUxsI8oJ3FVtmY-22" value="+ name: String&#xa;+Â totalNumberPages: int" style="text;strokeColor=none;fillColor=none;align=left;verticalAlign=top;spacingLeft=4;spacingRight=4;overflow=hidden;rotatable=0;points=[[0,0.5],[1,0.5]];portConstraint=eastwest;" parent="jWcVo7mUxsI8oJ3FVtmY-21" vertex="1">
          <mxGeometry y="26" width="160" height="34" as="geometry"/>
        </mxCell>
        <mxCell id="jWcVo7mUxsI8oJ3FVtmY-23" value="" style="line;strokeWidth=1;fillColor=none;align=left;verticalAlign=middle;spacingTop=-1;spacingLeft=3;spacingRight=3;rotatable=0;labelPosition=right;points=[];portConstraint=eastwest;" parent="jWcVo7mUxsI8oJ3FVtmY-21" vertex="1">
          <mxGeometry y="60" width="160" height="32" as="geometry"/>
        </mxCell>
        <mxCell id="jWcVo7mUxsI8oJ3FVtmY-26" value="BtkLetterModelMedia" style="swimlane;fontStyle=1;align=center;verticalAlign=top;childLayout=stackLayout;horizontal=1;startSize=26;horizontalStack=0;resizeParent=1;resizeParentMax=0;resizeLast=0;collapsible=1;marginBottom=0;" parent="1" vertex="1">
          <mxGeometry x="796" y="540" width="160" height="60" as="geometry"/>
        </mxCell>
        <mxCell id="jWcVo7mUxsI8oJ3FVtmY-28" value="" style="line;strokeWidth=1;fillColor=none;align=left;verticalAlign=middle;spacingTop=-1;spacingLeft=3;spacingRight=3;rotatable=0;labelPosition=right;points=[];portConstraint=eastwest;" parent="jWcVo7mUxsI8oJ3FVtmY-26" vertex="1">
          <mxGeometry y="26" width="160" height="34" as="geometry"/>
        </mxCell>
        <mxCell id="jWcVo7mUxsI8oJ3FVtmY-30" value="Extends" style="endArrow=block;endSize=16;endFill=0;html=1;entryX=0.5;entryY=1;entryDx=0;entryDy=0;exitX=0.5;exitY=0;exitDx=0;exitDy=0;" parent="1" source="jWcVo7mUxsI8oJ3FVtmY-26" target="jWcVo7mUxsI8oJ3FVtmY-21" edge="1">
          <mxGeometry width="160" relative="1" as="geometry">
            <mxPoint x="880" y="530" as="sourcePoint"/>
            <mxPoint x="920" y="480" as="targetPoint"/>
            <Array as="points"/>
            <mxPoint as="offset"/>
          </mxGeometry>
        </mxCell>
        <mxCell id="jWcVo7mUxsI8oJ3FVtmY-31" value="Media" style="swimlane;fontStyle=1;align=center;verticalAlign=top;childLayout=stackLayout;horizontal=1;startSize=26;horizontalStack=0;resizeParent=1;resizeParentMax=0;resizeLast=0;collapsible=1;marginBottom=0;fillColor=#66B2FF;" parent="1" vertex="1">
          <mxGeometry x="800" y="240" width="160" height="80" as="geometry"/>
        </mxCell>
        <mxCell id="jWcVo7mUxsI8oJ3FVtmY-33" value="" style="line;strokeWidth=1;fillColor=none;align=left;verticalAlign=middle;spacingTop=-1;spacingLeft=3;spacingRight=3;rotatable=0;labelPosition=right;points=[];portConstraint=eastwest;" parent="jWcVo7mUxsI8oJ3FVtmY-31" vertex="1">
          <mxGeometry y="26" width="160" height="54" as="geometry"/>
        </mxCell>
        <mxCell id="jWcVo7mUxsI8oJ3FVtmY-35" value="Extends" style="endArrow=block;endSize=16;endFill=0;html=1;entryX=0.5;entryY=1;entryDx=0;entryDy=0;" parent="1" source="jWcVo7mUxsI8oJ3FVtmY-21" target="jWcVo7mUxsI8oJ3FVtmY-31" edge="1">
          <mxGeometry width="160" relative="1" as="geometry">
            <mxPoint x="884" y="350" as="sourcePoint"/>
            <mxPoint x="884" y="270" as="targetPoint"/>
          </mxGeometry>
        </mxCell>
        <mxCell id="jWcVo7mUxsI8oJ3FVtmY-48" value="Subcategory" style="text;html=1;align=center;verticalAlign=middle;resizable=0;points=[];;autosize=1;" parent="1" vertex="1">
          <mxGeometry x="170" y="540" width="80" height="20" as="geometry"/>
        </mxCell>
        <mxCell id="jWcVo7mUxsI8oJ3FVtmY-49" value="supercategory" style="text;html=1;align=center;verticalAlign=middle;resizable=0;points=[];;autosize=1;" parent="1" vertex="1">
          <mxGeometry x="335" y="440" width="90" height="20" as="geometry"/>
        </mxCell>
        <mxCell id="jWcVo7mUxsI8oJ3FVtmY-56" value="0..*" style="text;html=1;align=center;verticalAlign=middle;resizable=0;points=[];;autosize=1;" parent="1" vertex="1">
          <mxGeometry x="380" y="470" width="30" height="20" as="geometry"/>
        </mxCell>
        <mxCell id="jWcVo7mUxsI8oJ3FVtmY-57" value="0..*" style="text;html=1;align=center;verticalAlign=middle;resizable=0;points=[];;autosize=1;" parent="1" vertex="1">
          <mxGeometry x="200" y="580" width="30" height="20" as="geometry"/>
        </mxCell>
        <mxCell id="jWcVo7mUxsI8oJ3FVtmY-61" value="1..*" style="text;html=1;align=center;verticalAlign=middle;resizable=0;points=[];;autosize=1;" parent="1" vertex="1">
          <mxGeometry x="740" y="580" width="30" height="20" as="geometry"/>
        </mxCell>
        <mxCell id="jWcVo7mUxsI8oJ3FVtmY-62" value="1..*" style="text;html=1;align=center;verticalAlign=middle;resizable=0;points=[];;autosize=1;" parent="1" vertex="1">
          <mxGeometry x="584" y="574" width="30" height="20" as="geometry"/>
        </mxCell>
        <mxCell id="jWcVo7mUxsI8oJ3FVtmY-64" value="" style="endArrow=open;endFill=1;endSize=12;html=1;entryX=0;entryY=0.5;entryDx=0;entryDy=0;" parent="1" target="jWcVo7mUxsI8oJ3FVtmY-26" edge="1">
          <mxGeometry width="160" relative="1" as="geometry">
            <mxPoint x="590" y="570" as="sourcePoint"/>
            <mxPoint x="804" y="440" as="targetPoint"/>
          </mxGeometry>
        </mxCell>
        <mxCell id="Nr442_mOs_auds5EHOVV-3" value="Extends" style="endArrow=block;endSize=16;endFill=0;html=1;entryX=0.5;entryY=1;entryDx=0;entryDy=0;exitX=0.5;exitY=0;exitDx=0;exitDy=0;" parent="1" source="Nr442_mOs_auds5EHOVV-4" edge="1">
          <mxGeometry width="160" relative="1" as="geometry">
            <mxPoint x="706" y="790" as="sourcePoint"/>
            <mxPoint x="776" y="800" as="targetPoint"/>
          </mxGeometry>
        </mxCell>
        <mxCell id="Nr442_mOs_auds5EHOVV-4" value="BtkLetterMediaService" style="swimlane;fontStyle=1;align=center;verticalAlign=top;childLayout=stackLayout;horizontal=1;startSize=26;horizontalStack=0;resizeParent=1;resizeParentMax=0;resizeLast=0;collapsible=1;marginBottom=0;" parent="1" vertex="1">
          <mxGeometry x="616" y="870" width="320" height="112" as="geometry"/>
        </mxCell>
        <mxCell id="Nr442_mOs_auds5EHOVV-5" value="" style="line;strokeWidth=1;fillColor=none;align=left;verticalAlign=middle;spacingTop=-1;spacingLeft=3;spacingRight=3;rotatable=0;labelPosition=right;points=[];portConstraint=eastwest;" parent="Nr442_mOs_auds5EHOVV-4" vertex="1">
          <mxGeometry y="26" width="320" height="8" as="geometry"/>
        </mxCell>
        <mxCell id="Nr442_mOs_auds5EHOVV-6" value="+ getDraftLettersForGarantedUser(): List&lt;DraftLetterMedia&gt;" style="text;strokeColor=none;fillColor=none;align=left;verticalAlign=top;spacingLeft=4;spacingRight=4;overflow=hidden;rotatable=0;points=[[0,0.5],[1,0.5]];portConstraint=eastwest;" parent="Nr442_mOs_auds5EHOVV-4" vertex="1">
          <mxGeometry y="34" width="320" height="26" as="geometry"/>
        </mxCell>
        <mxCell id="Nr442_mOs_auds5EHOVV-7" value="+ addDraftLetter(String Html):void" style="text;strokeColor=none;fillColor=none;align=left;verticalAlign=top;spacingLeft=4;spacingRight=4;overflow=hidden;rotatable=0;points=[[0,0.5],[1,0.5]];portConstraint=eastwest;" parent="Nr442_mOs_auds5EHOVV-4" vertex="1">
          <mxGeometry y="60" width="320" height="26" as="geometry"/>
        </mxCell>
        <mxCell id="Nr442_mOs_auds5EHOVV-8" value="+ getDraftLetterWithAge(Int : age): List&lt;DraftLetterMedia&gt;" style="text;strokeColor=none;fillColor=none;align=left;verticalAlign=top;spacingLeft=4;spacingRight=4;overflow=hidden;rotatable=0;points=[[0,0.5],[1,0.5]];portConstraint=eastwest;" parent="Nr442_mOs_auds5EHOVV-4" vertex="1">
          <mxGeometry y="86" width="320" height="26" as="geometry"/>
        </mxCell>
        <mxCell id="Nr442_mOs_auds5EHOVV-9" style="edgeStyle=orthogonalEdgeStyle;rounded=0;orthogonalLoop=1;jettySize=auto;html=1;exitX=0;exitY=0;exitDx=0;exitDy=0;exitPerimeter=0;entryX=1.003;entryY=0.036;entryDx=0;entryDy=0;entryPerimeter=0;" parent="1" source="Nr442_mOs_auds5EHOVV-10" target="Nr442_mOs_auds5EHOVV-4" edge="1">
          <mxGeometry relative="1" as="geometry">
            <Array as="points">
              <mxPoint x="996" y="874"/>
            </Array>
          </mxGeometry>
        </mxCell>
        <mxCell id="Nr442_mOs_auds5EHOVV-10" value="utilise permissionService&lt;br&gt;&lt;br&gt;pour crÃ©er et rÃ©cupÃ©rer les letters" style="shape=note;whiteSpace=wrap;html=1;size=14;verticalAlign=top;align=left;spacingTop=-6;" parent="1" vertex="1">
          <mxGeometry x="996" y="857" width="140" height="69" as="geometry"/>
        </mxCell>
        <mxCell id="Nr442_mOs_auds5EHOVV-11" value="BtkLetterModelCategoryService" style="swimlane;fontStyle=1;align=center;verticalAlign=top;childLayout=stackLayout;horizontal=1;startSize=26;horizontalStack=0;resizeParent=1;resizeParentMax=0;resizeLast=0;collapsible=1;marginBottom=0;" parent="1" vertex="1">
          <mxGeometry x="160" y="880" width="300" height="90" as="geometry"/>
        </mxCell>
        <mxCell id="Nr442_mOs_auds5EHOVV-13" value="" style="line;strokeWidth=1;fillColor=none;align=left;verticalAlign=middle;spacingTop=-1;spacingLeft=3;spacingRight=3;rotatable=0;labelPosition=right;points=[];portConstraint=eastwest;" parent="Nr442_mOs_auds5EHOVV-11" vertex="1">
          <mxGeometry y="26" width="300" height="8" as="geometry"/>
        </mxCell>
        <mxCell id="Nr442_mOs_auds5EHOVV-14" value="+ getLetterModelCategoryByLevel(LetterModelLevelEnum level):List&lt;BtkLetterModelCategory&gt;&#xa;&#xa;+ getLetterModelByCategory(BtkLetterModelCategory category): List&lt;BtkLetterModelMedia&gt;&#xa;" style="text;strokeColor=none;fillColor=none;align=left;verticalAlign=top;spacingLeft=4;spacingRight=4;overflow=hidden;rotatable=0;points=[[0,0.5],[1,0.5]];portConstraint=eastwest;" parent="Nr442_mOs_auds5EHOVV-11" vertex="1">
          <mxGeometry y="34" width="300" height="56" as="geometry"/>
        </mxCell>
        <mxCell id="Nr442_mOs_auds5EHOVV-15" value="Use" style="endArrow=open;endSize=12;dashed=1;html=1;" parent="1" edge="1">
          <mxGeometry width="160" relative="1" as="geometry">
            <mxPoint x="460" y="940" as="sourcePoint"/>
            <mxPoint x="614" y="940" as="targetPoint"/>
          </mxGeometry>
        </mxCell>
        <mxCell id="Nr442_mOs_auds5EHOVV-16" value="MediaService" style="swimlane;fontStyle=1;align=center;verticalAlign=top;childLayout=stackLayout;horizontal=1;startSize=26;horizontalStack=0;resizeParent=1;resizeParentMax=0;resizeLast=0;collapsible=1;marginBottom=0;fillColor=#66B2FF;" parent="1" vertex="1">
          <mxGeometry x="696" y="720" width="160" height="80" as="geometry"/>
        </mxCell>
        <mxCell id="Nr442_mOs_auds5EHOVV-17" value="" style="line;strokeWidth=1;fillColor=none;align=left;verticalAlign=middle;spacingTop=-1;spacingLeft=3;spacingRight=3;rotatable=0;labelPosition=right;points=[];portConstraint=eastwest;" parent="Nr442_mOs_auds5EHOVV-16" vertex="1">
          <mxGeometry y="26" width="160" height="54" as="geometry"/>
        </mxCell>
        <mxCell id="Rz3IIt5uJxlUmd5bq5oW-7" value="&lt;p style=&quot;margin: 0px ; margin-top: 4px ; text-align: center&quot;&gt;&lt;i&gt;&amp;lt;&amp;lt;enumeration&amp;gt;&amp;gt;&lt;/i&gt;&lt;br&gt;&lt;span style=&quot;text-align: left&quot;&gt;LetterModelLevelEnum&lt;/span&gt;&lt;br&gt;&lt;/p&gt;&lt;hr size=&quot;1&quot;&gt;&lt;p style=&quot;margin: 0px ; margin-left: 4px&quot;&gt;THEMATIC&lt;br&gt;&lt;/p&gt;&lt;p style=&quot;margin: 0px ; margin-left: 4px&quot;&gt;...&lt;/p&gt;" style="verticalAlign=top;align=left;overflow=fill;fontSize=12;fontFamily=Helvetica;html=1;" vertex="1" parent="1">
          <mxGeometry x="395" y="260" width="158" height="100" as="geometry"/>
        </mxCell>
        <mxCell id="Rz3IIt5uJxlUmd5bq5oW-8" value="" style="endArrow=block;endFill=1;html=1;edgeStyle=orthogonalEdgeStyle;align=left;verticalAlign=top;entryX=0.75;entryY=1;entryDx=0;entryDy=0;" edge="1" parent="1" target="Rz3IIt5uJxlUmd5bq5oW-7">
          <mxGeometry x="-0.3827" y="-69" relative="1" as="geometry">
            <mxPoint x="514" y="500" as="sourcePoint"/>
            <mxPoint x="670" y="489.5" as="targetPoint"/>
            <Array as="points">
              <mxPoint x="514" y="500"/>
            </Array>
            <mxPoint as="offset"/>
          </mxGeometry>
        </mxCell>
        <mxCell id="Rz3IIt5uJxlUmd5bq5oW-9" value="" style="resizable=0;html=1;align=left;verticalAlign=bottom;labelBackgroundColor=#ffffff;fontSize=10;" connectable="0" vertex="1" parent="Rz3IIt5uJxlUmd5bq5oW-8">
          <mxGeometry x="-1" relative="1" as="geometry">
            <mxPoint x="59" y="-50" as="offset"/>
          </mxGeometry>
        </mxCell>
      </root>
    </mxGraphModel>
  </diagram>
</mxfile>
